# xmcd
# Copyright (C) 1995-1998 Ti Kan
#
# Track frame offsets:
#       150
#       5515
#       20795
#       36282
#       50005
#       65950
#       91950
#       103652
#       125342
#       143977
#       149270
#       176670
#       200440
#
# Disc length: 3011 seconds
#
# Revision: 0
# Processed by: cddbd v1.5.2PL0 Copyright (c) Steve Scherf et al.
# Submitted via: CD-Import v1.0
#
DISCID=c40bc10d
DTITLE=Mos Def and Talib Kweli - Black Star
DYEAR=1998
DGENRE=
TTITLE0=Intro
TTITLE1=Astronomy (8th Light)
TTITLE2=Definition
TTITLE3=Re:definition
TTITLE4=Children's Story
TTITLE5=Brown Skin Lady
TTITLE6=B Boys Will B Boys
TTITLE7=K.o.s. (Determination)
TTITLE8=Hater Players
TTITLE9=Yo Yeah
TTITLE10=Respiration
TTITLE11=Thieves In The Night
TTITLE12=Twice Inna Lifetime
EXTD=
EXTT0=
EXTT1=
EXTT2=
EXTT3=
EXTT4=
EXTT5=
EXTT6=
EXTT7=
EXTT8=
EXTT9=
EXTT10=
EXTT11=
EXTT12=
PLAYORDER=
